<svg xmlns="http://www.w3.org/2000/svg" width="305" height="427" fill="none" viewBox="0 0 305 427" data-app="Xyris">
    <defs>
    </defs>
    <rect x="0.5" y="0.5" width="304" height="426" stroke="#E9E9E9">
    </rect>
    <rect x="53.4688" y="52.7012" width="199.648" height="321.179" stroke="#E9E9E9">
    </rect>
    <circle cx="279.217" cy="178.078" r="26.1006" fill="#FF4646" fill-opacity="0.19" transform="">
        <animate attributeName="cy" keyTimes="0; 1" values="178.078; 26.101" begin="-0.00001" dur="0.9701692537313432" fill="freeze" calcMode="spline" keySplines="0 0 1 1">
        </animate>
        <animate attributeName="cx" keyTimes="0; 1" values="279.217; 26.101" begin="0.9701392537313432" dur="2.00002" fill="freeze" calcMode="spline" keySplines="0 0 1 1">
        </animate>
        <animate attributeName="cy" keyTimes="0; 1" values="26.101; 399.981" begin="2.970139253731343" dur="2.0000199999999997" fill="freeze" calcMode="spline" keySplines="0 0 1 1">
        </animate>
        <animate attributeName="cx" keyTimes="0; 1" values="26.101; 278.897" begin="4.970139253731343" dur="1.91046776119403" fill="freeze" calcMode="spline" keySplines="0 0 1 1">
        </animate>
        <animate attributeName="cy" keyTimes="0; 1" values="399.981;178.062" begin="6.880587014925373" dur="1.0834229850746284" fill="freeze" calcMode="spline" keySplines="0 0 1 1">
        </animate>
    </circle>
    <circle cx="26.1006" cy="26.1006" r="26.1006" fill="#FF4646" fill-opacity="0.19" transform="">
        <animate attributeName="cy" keyTimes="0; 1" values="26.1006; 399.981" begin="-0.00001" dur="1.9640199999999999" fill="freeze" calcMode="spline" keySplines="0 0 1 1">
        </animate>
        <animate attributeName="cx" keyTimes="0; 1" values="26.1006; 278.872" begin="1.96399" dur="2.0298707462686574" fill="freeze" calcMode="spline" keySplines="0 0 1 1">
        </animate>
        <animate attributeName="cy" keyTimes="0; 1" values="399.981; 26.138" begin="3.993840746268657" dur="2.014945373134329" fill="freeze" calcMode="spline" keySplines="0 0 1 1">
        </animate>
        <animate attributeName="cx" keyTimes="0; 1" values="278.872; 26.626" begin="6.008766119402987" dur="1.955243880597015" fill="freeze" calcMode="spline" keySplines="0 0 1 1">
        </animate>
    </circle>
    <circle cx="26.6006" cy="399.981" r="26.1006" fill="#FF4646" fill-opacity="0.19" transform="">
        <animate attributeName="cx" keyTimes="0; 1" values="26.1005; 278.897" begin="-0.00001" dur="1.9640199999999999" fill="freeze" calcMode="spline" keySplines="0 0 1 1">
        </animate>
        <animate attributeName="cy" keyTimes="0; 1" values="400.48; 26.101" begin="1.96399" dur="2.0298707462686574" fill="freeze" calcMode="spline" keySplines="0 0 1 1">
        </animate>
        <animate attributeName="cx" keyTimes="0; 1" values="278.897; 26.601" begin="3.993840746268657" dur="2.014945373134329" fill="freeze" calcMode="spline" keySplines="0 0 1 1">
        </animate>
        <animate attributeName="cy" keyTimes="0; 1" values="26.101; 400.48" begin="6.008766119402987" dur="1.955243880597015" fill="freeze" calcMode="spline" keySplines="0 0 1 1">
        </animate>
    </circle>
    <path d="M235.583 307.966C232.8 307.966 230.29 307.481 228.055 306.511C225.82 305.541 223.964 304.107 222.488 302.209L226.916 298.413C228.182 299.889 229.552 300.965 231.028 301.64C232.547 302.272 234.255 302.589 236.152 302.589C236.911 302.589 237.607 302.504 238.24 302.335C238.915 302.125 239.484 301.829 239.948 301.45C240.454 301.07 240.834 300.627 241.087 300.121C241.34 299.573 241.466 298.983 241.466 298.35C241.466 297.254 241.066 296.368 240.264 295.693C239.843 295.398 239.168 295.082 238.24 294.744C237.354 294.365 236.195 293.985 234.761 293.606C232.315 292.973 230.311 292.256 228.751 291.455C227.191 290.654 225.989 289.747 225.145 288.735C224.513 287.933 224.049 287.069 223.753 286.141C223.458 285.171 223.311 284.117 223.311 282.978C223.311 281.586 223.606 280.321 224.196 279.182C224.829 278.002 225.672 276.989 226.727 276.146C227.823 275.26 229.088 274.586 230.522 274.122C231.998 273.658 233.559 273.426 235.203 273.426C236.764 273.426 238.303 273.637 239.821 274.058C241.382 274.48 242.816 275.092 244.123 275.893C245.43 276.694 246.527 277.643 247.413 278.74L243.68 282.851C242.879 282.05 241.993 281.354 241.023 280.764C240.096 280.131 239.147 279.646 238.177 279.309C237.207 278.972 236.321 278.803 235.52 278.803C234.634 278.803 233.833 278.887 233.116 279.056C232.399 279.225 231.787 279.478 231.281 279.815C230.817 280.152 230.459 280.574 230.206 281.08C229.953 281.586 229.826 282.156 229.826 282.788C229.869 283.336 229.995 283.864 230.206 284.37C230.459 284.834 230.796 285.234 231.218 285.572C231.682 285.909 232.378 286.268 233.306 286.647C234.234 287.027 235.414 287.385 236.848 287.722C238.957 288.271 240.686 288.882 242.036 289.557C243.427 290.19 244.524 290.928 245.325 291.771C246.169 292.572 246.759 293.5 247.096 294.555C247.434 295.609 247.602 296.79 247.602 298.097C247.602 299.995 247.054 301.703 245.958 303.221C244.903 304.697 243.469 305.857 241.656 306.7C239.843 307.544 237.818 307.966 235.583 307.966Z" fill="#E9E9E9">
    </path>
    <path d="M202.949 307.965C199.533 307.965 196.496 307.248 193.839 305.815C191.225 304.338 189.158 302.335 187.64 299.805C186.164 297.274 185.426 294.365 185.426 291.075C185.426 288.46 185.848 286.078 186.691 283.927C187.534 281.776 188.694 279.92 190.17 278.36C191.688 276.757 193.481 275.534 195.547 274.691C197.656 273.805 199.933 273.362 202.379 273.362C204.53 273.362 206.533 273.784 208.389 274.628C210.245 275.429 211.847 276.546 213.197 277.98C214.588 279.414 215.643 281.122 216.36 283.104C217.119 285.044 217.477 287.174 217.435 289.494L217.372 292.277H190.234L188.779 287.09H211.742L210.793 288.165V286.647C210.666 285.255 210.202 284.011 209.401 282.915C208.6 281.818 207.588 280.953 206.365 280.321C205.142 279.688 203.813 279.372 202.379 279.372C200.102 279.372 198.183 279.815 196.623 280.7C195.062 281.544 193.881 282.809 193.08 284.496C192.279 286.141 191.878 288.186 191.878 290.632C191.878 292.952 192.363 294.976 193.333 296.705C194.303 298.392 195.674 299.699 197.445 300.627C199.216 301.555 201.262 302.019 203.581 302.019C205.226 302.019 206.744 301.745 208.136 301.197C209.57 300.648 211.109 299.657 212.754 298.223L216.043 302.841C215.031 303.854 213.787 304.739 212.311 305.498C210.877 306.257 209.338 306.869 207.693 307.333C206.091 307.755 204.509 307.965 202.949 307.965ZM202.379 266.783C200.988 266.783 199.912 266.425 199.153 265.708C198.394 264.991 198.014 263.979 198.014 262.671C198.014 261.448 198.394 260.457 199.153 259.698C199.954 258.939 201.03 258.56 202.379 258.56C203.771 258.56 204.847 258.918 205.606 259.635C206.365 260.352 206.744 261.364 206.744 262.671C206.744 263.894 206.344 264.886 205.542 265.645C204.783 266.404 203.729 266.783 202.379 266.783Z" fill="#E9E9E9">
    </path>
    <path d="M172.316 307.333V260.521H178.832V307.333H172.316Z" fill="#E9E9E9">
    </path>
    <path d="M145.976 321.883C143.615 321.883 141.253 321.503 138.891 320.744C136.572 320.027 134.695 319.078 133.261 317.897L135.665 312.837C136.508 313.469 137.499 314.017 138.638 314.481C139.777 314.987 140.979 315.367 142.244 315.62C143.509 315.915 144.753 316.063 145.976 316.063C148.296 316.063 150.236 315.683 151.796 314.924C153.357 314.165 154.537 313.047 155.339 311.571C156.14 310.095 156.541 308.261 156.541 306.068V299.679L157.236 300.121C157.026 301.429 156.33 302.694 155.149 303.917C154.01 305.098 152.576 306.068 150.847 306.827C149.118 307.586 147.347 307.966 145.533 307.966C142.37 307.966 139.545 307.228 137.057 305.751C134.611 304.233 132.671 302.188 131.237 299.615C129.803 297.001 129.086 294.027 129.086 290.696C129.086 287.364 129.782 284.412 131.174 281.839C132.607 279.225 134.547 277.179 136.993 275.703C139.482 274.185 142.265 273.426 145.344 273.426C146.609 273.426 147.832 273.594 149.013 273.932C150.194 274.227 151.29 274.67 152.302 275.26C153.314 275.809 154.221 276.42 155.022 277.095C155.824 277.77 156.477 278.487 156.983 279.246C157.49 280.005 157.806 280.722 157.932 281.397L156.541 281.903V274.122H163.056V305.309C163.056 307.966 162.656 310.306 161.854 312.33C161.095 314.397 159.978 316.126 158.502 317.518C157.026 318.952 155.233 320.027 153.125 320.744C151.016 321.503 148.633 321.883 145.976 321.883ZM146.229 301.956C148.296 301.956 150.13 301.471 151.733 300.501C153.335 299.531 154.58 298.202 155.465 296.516C156.351 294.829 156.794 292.889 156.794 290.696C156.794 288.503 156.33 286.563 155.402 284.876C154.516 283.147 153.272 281.797 151.67 280.827C150.109 279.857 148.296 279.372 146.229 279.372C144.205 279.372 142.392 279.878 140.789 280.89C139.229 281.86 137.984 283.21 137.057 284.939C136.171 286.626 135.728 288.545 135.728 290.696C135.728 292.847 136.171 294.786 137.057 296.516C137.984 298.202 139.229 299.531 140.789 300.501C142.392 301.471 144.205 301.956 146.229 301.956Z" fill="#E9E9E9">
    </path>
    <path d="M114.577 307.333V274.121H121.093V307.333H114.577ZM117.74 266.783C116.348 266.783 115.273 266.425 114.514 265.708C113.755 264.991 113.375 263.979 113.375 262.671C113.375 261.448 113.755 260.457 114.514 259.698C115.315 258.939 116.39 258.56 117.74 258.56C119.132 258.56 120.207 258.918 120.966 259.635C121.725 260.352 122.105 261.364 122.105 262.671C122.105 263.894 121.704 264.886 120.903 265.645C120.144 266.404 119.089 266.783 117.74 266.783Z" fill="#E9E9E9">
    </path>
    <path d="M60.4727 307.333V263.051H67.1782L83.3094 289.304L80.0832 289.24L96.4042 263.051H102.73V307.333H95.8981V289.177C95.8981 285.381 95.9824 281.965 96.1511 278.929C96.362 275.892 96.6994 272.877 97.1633 269.883L98.0489 272.223L83.5624 294.617H79.3873L65.3437 272.476L66.0395 269.883C66.5034 272.708 66.8197 275.618 66.9884 278.613C67.1993 281.565 67.3047 285.086 67.3047 289.177V307.333H60.4727Z" fill="#E9E9E9">
    </path>
    <path d="M235.062 361.003C232.321 361.003 229.812 360.244 227.534 358.725C225.299 357.207 223.507 355.141 222.157 352.526C220.808 349.911 220.133 346.959 220.133 343.67C220.133 340.338 220.808 337.386 222.157 334.813C223.549 332.198 225.404 330.153 227.724 328.677C230.086 327.201 232.721 326.463 235.631 326.463C237.361 326.463 238.942 326.716 240.376 327.222C241.81 327.728 243.054 328.445 244.108 329.373C245.205 330.258 246.09 331.292 246.765 332.473C247.482 333.653 247.925 334.919 248.094 336.268L246.639 335.762V327.159H253.218V360.37H246.639V352.463L248.157 352.02C247.904 353.158 247.377 354.276 246.575 355.373C245.816 356.427 244.825 357.376 243.602 358.219C242.421 359.063 241.093 359.737 239.617 360.244C238.183 360.75 236.665 361.003 235.062 361.003ZM236.77 354.993C238.752 354.993 240.502 354.508 242.021 353.538C243.539 352.568 244.72 351.24 245.563 349.553C246.449 347.824 246.892 345.863 246.892 343.67C246.892 341.519 246.449 339.6 245.563 337.913C244.72 336.226 243.539 334.898 242.021 333.928C240.502 332.958 238.752 332.473 236.77 332.473C234.83 332.473 233.101 332.958 231.583 333.928C230.107 334.898 228.926 336.226 228.04 337.913C227.197 339.6 226.775 341.519 226.775 343.67C226.775 345.863 227.197 347.824 228.04 349.553C228.926 351.24 230.107 352.568 231.583 353.538C233.101 354.508 234.83 354.993 236.77 354.993Z" fill="#FF4646">
    </path>
    <path d="M201.557 372.832L199.09 367.835C200.735 367.835 202.084 367.539 203.138 366.949C204.235 366.401 205.057 365.557 205.606 364.419C206.154 363.322 206.428 361.951 206.428 360.307V327.159H212.944V361.888C212.944 364.039 212.459 365.937 211.489 367.582C210.561 369.226 209.232 370.513 207.503 371.44C205.816 372.368 203.834 372.832 201.557 372.832ZM209.844 319.82C208.452 319.82 207.377 319.462 206.618 318.745C205.859 318.028 205.479 317.016 205.479 315.709C205.479 314.486 205.859 313.494 206.618 312.735C207.419 311.976 208.494 311.597 209.844 311.597C211.236 311.597 212.311 311.955 213.07 312.672C213.829 313.389 214.209 314.401 214.209 315.709C214.209 316.932 213.808 317.923 213.007 318.682C212.248 319.441 211.194 319.82 209.844 319.82Z" fill="#FF4646">
    </path>
    <path d="M189.011 360.37V327.159H195.526V360.37H189.011ZM192.174 319.82C190.782 319.82 189.706 319.462 188.947 318.745C188.188 318.028 187.809 317.016 187.809 315.709C187.809 314.486 188.188 313.494 188.947 312.735C189.749 311.976 190.824 311.597 192.174 311.597C193.565 311.597 194.641 311.955 195.4 312.672C196.159 313.389 196.538 314.401 196.538 315.709C196.538 316.932 196.138 317.923 195.337 318.682C194.577 319.441 193.523 319.82 192.174 319.82Z" fill="#FF4646">
    </path>
    <path d="M161.695 361.002C158.658 361.002 155.938 360.264 153.534 358.788C151.172 357.27 149.296 355.225 147.904 352.652C146.512 350.037 145.816 347.064 145.816 343.732C145.816 340.401 146.491 337.449 147.841 334.876C149.232 332.261 151.109 330.216 153.471 328.74C155.833 327.222 158.511 326.463 161.505 326.463C163.15 326.463 164.731 326.737 166.249 327.285C167.81 327.791 169.201 328.508 170.424 329.436C171.647 330.321 172.596 331.313 173.271 332.409C173.988 333.463 174.347 334.539 174.347 335.635L172.449 335.762V313.558H178.964V360.37H172.449V352.462H173.714C173.714 353.474 173.377 354.487 172.702 355.499C172.027 356.469 171.12 357.375 169.982 358.219C168.885 359.062 167.599 359.737 166.123 360.243C164.689 360.749 163.213 361.002 161.695 361.002ZM162.58 355.372C164.562 355.372 166.313 354.866 167.831 353.854C169.349 352.842 170.53 351.471 171.373 349.742C172.259 347.971 172.702 345.968 172.702 343.732C172.702 341.497 172.259 339.515 171.373 337.786C170.53 336.015 169.349 334.623 167.831 333.611C166.313 332.599 164.562 332.093 162.58 332.093C160.598 332.093 158.848 332.599 157.33 333.611C155.811 334.623 154.61 336.015 153.724 337.786C152.88 339.515 152.459 341.497 152.459 343.732C152.459 345.968 152.88 347.971 153.724 349.742C154.61 351.471 155.811 352.842 157.33 353.854C158.848 354.866 160.598 355.372 162.58 355.372Z" fill="#FF4646">
    </path>
    <path d="M121.175 361.003C118.813 361.003 116.747 360.455 114.975 359.358C113.246 358.262 111.897 356.723 110.927 354.74C109.999 352.758 109.535 350.397 109.535 347.655V327.159H116.051V345.884C116.051 347.824 116.346 349.511 116.937 350.945C117.569 352.337 118.455 353.412 119.593 354.171C120.774 354.93 122.187 355.31 123.832 355.31C125.055 355.31 126.172 355.12 127.185 354.74C128.197 354.319 129.061 353.749 129.778 353.032C130.537 352.315 131.128 351.451 131.55 350.439C131.971 349.427 132.182 348.33 132.182 347.149V327.159H138.698V360.371H132.182V353.412L133.321 352.653C132.815 354.213 131.95 355.626 130.727 356.891C129.546 358.156 128.134 359.169 126.489 359.928C124.844 360.645 123.073 361.003 121.175 361.003Z" fill="#FF4646">
    </path>
    <path d="M89.3719 360.37V318.682H95.8876V360.37H89.3719ZM82.4766 333.484V327.158H103.605V333.484H82.4766Z" fill="#FF4646">
    </path>
    <path d="M66.0596 361.003C63.2762 361.003 60.7669 360.518 58.5317 359.548C56.2965 358.578 54.4409 357.144 52.9648 355.246L57.393 351.45C58.6582 352.927 60.0288 354.002 61.5049 354.677C63.0231 355.309 64.7311 355.626 66.6289 355.626C67.3881 355.626 68.0839 355.541 68.7165 355.373C69.3913 355.162 69.9606 354.866 70.4245 354.487C70.9306 354.107 71.3102 353.665 71.5632 353.158C71.8162 352.61 71.9428 352.02 71.9428 351.387C71.9428 350.291 71.5421 349.405 70.7408 348.73C70.3191 348.435 69.6443 348.119 68.7165 347.781C67.8309 347.402 66.6711 347.022 65.2372 346.643C62.7912 346.01 60.788 345.293 59.2276 344.492C57.6671 343.691 56.4652 342.784 55.6218 341.772C54.9892 340.97 54.5252 340.106 54.23 339.178C53.9348 338.208 53.7872 337.154 53.7872 336.015C53.7872 334.623 54.0824 333.358 54.6729 332.22C55.3055 331.039 56.1489 330.027 57.2032 329.183C58.2997 328.297 59.5649 327.623 60.9988 327.159C62.4749 326.695 64.0353 326.463 65.68 326.463C67.2404 326.463 68.7798 326.674 70.298 327.095C71.8584 327.517 73.2923 328.129 74.5997 328.93C75.907 329.731 77.0035 330.68 77.8892 331.777L74.1568 335.889C73.3556 335.087 72.4699 334.391 71.4999 333.801C70.5721 333.168 69.6232 332.683 68.6532 332.346C67.6833 332.009 66.7976 331.84 65.9963 331.84C65.1107 331.84 64.3094 331.924 63.5925 332.093C62.8755 332.262 62.264 332.515 61.7579 332.852C61.294 333.19 60.9356 333.611 60.6825 334.117C60.4295 334.623 60.303 335.193 60.303 335.825C60.3451 336.374 60.4717 336.901 60.6825 337.407C60.9356 337.871 61.273 338.271 61.6947 338.609C62.1586 338.946 62.8544 339.305 63.7823 339.684C64.7101 340.064 65.8909 340.422 67.3248 340.76C69.4335 341.308 71.1626 341.919 72.5121 342.594C73.9038 343.227 75.0003 343.965 75.8016 344.808C76.6451 345.609 77.2355 346.537 77.5729 347.592C77.9103 348.646 78.0789 349.827 78.0789 351.134C78.0789 353.032 77.5307 354.74 76.4342 356.258C75.3799 357.734 73.946 358.894 72.1325 359.737C70.3191 360.581 68.2948 361.003 66.0596 361.003Z" fill="#FF4646">
    </path>
    <path d="M170.247 103.261C170.247 89.8629 181.108 79.0018 194.506 79.0018C207.904 79.0018 218.765 89.8629 218.765 103.261H244.75C244.75 75.5117 222.255 53.0166 194.506 53.0166C166.757 53.0166 144.262 75.5117 144.262 103.261C144.262 131.01 166.757 153.505 194.506 153.505V127.975C181.108 127.975 170.247 116.659 170.247 103.261Z" fill="#FF4646">
    </path>
    <path d="M219.225 177.851C219.225 191.251 207.476 202.113 194.081 202.113C180.686 202.113 169.985 190.848 169.985 177.448L143.766 177.448C143.766 205.201 166.338 228.103 194.081 228.103C221.825 228.103 244.315 205.604 244.315 177.851C245.133 154.86 221.825 128.053 194.081 128.053L194.081 153.588C208.231 153.588 219.225 164.451 219.225 177.851Z" fill="#FF4646">
    </path>
    <path fill-rule="evenodd" clip-rule="evenodd" d="M119.045 153.584C105.515 153.584 94.5465 164.288 94.5465 177.492V177.969L94.6382 226.92H68.3964L68.3047 177.947V177.492C68.3047 150.144 91.0218 127.975 119.045 127.975C134.014 127.975 147.469 134.3 156.756 144.362C166.043 134.3 179.498 127.975 194.467 127.975C222.49 127.975 245.207 150.144 245.207 177.492V177.947L245.115 226.92H218.874L218.965 177.868V177.492C218.965 164.288 207.997 153.584 194.467 153.584C180.937 153.584 169.969 164.288 169.969 177.492H143.543C143.543 164.288 132.575 153.584 119.045 153.584Z" fill="#E9E9E9">
    </path>
    <path d="M81.797 265.898L60.3088 226.92L103.285 226.92L81.797 265.898Z" fill="#FF4646">
    </path>
</svg>
