<svg xmlns="http://www.w3.org/2000/svg" width="512" height="512" viewBox="0 0 512 512" data-app="Xyris">
    <defs>
    </defs>
    <path d="M 373.473 328.07 L 349.473 341.57 L 349.473 314.57 L 373.473 328.07 Z" fill="#FF4646" transform="" pathLength="0" stroke-dashoffset="0" visibility="hidden">
        <animate attributeName="opacity" keyTimes="0; 1" values="0; 1" begin="1.6200100000000006" dur="1.9400199999999999" fill="freeze" calcMode="spline" keySplines="0 0 1 1">
        </animate>
        <animate attributeName="visibility" keyTimes="0; 1" values="visible; hidden" begin="1.6200100000000006" dur="3.3799999999999994" fill="freeze" calcMode="spline" keySplines="0 0 1 1">
        </animate>
    </path>
    <line x1="222.473" y1="328.07" x2="333.473" y2="328.07" stroke="#E9E9E9" stroke-width="9" id="line-xd4to6TLys9Z1oP8e9BkZ7" transform="" stroke-dasharray="100px" pathLength="100" stroke-dashoffset="100">
        <animate attributeName="stroke-dashoffset" keyTimes="0; 1" values="100; 0" begin="1.0800100000000006" dur="0.5400200000000001" fill="freeze" calcMode="spline" keySplines="0 0 1 1">
        </animate>
    </line>
    <path d="M 202.973 231.57 C 196.604 231.57 190.297 232.824 184.413 235.262 C 178.529 237.699 173.182 241.272 168.678 245.775 C 164.175 250.279 160.602 255.626 158.165 261.51 C 155.728 267.394 154.473 273.701 154.473 280.07 C 154.473 286.439 155.728 292.746 158.165 298.63 C 160.602 304.514 164.175 309.861 168.678 314.365 C 173.182 318.868 178.529 322.441 184.413 324.878 C 190.297 327.316 196.604 328.57 202.973 328.57" stroke="#E9E9E9" stroke-width="9" fill="none" transform="" stroke-dasharray="100px" pathLength="100" stroke-dashoffset="100">
        <animate attributeName="stroke-dashoffset" keyTimes="0; 1" values="100; 0" begin="0.5300100000000004" dur="0.4999999999999999" fill="freeze" calcMode="spline" keySplines="0 0 1 1">
        </animate>
    </path>
    <path d="M 270.973 231.57 C 264.60400000000004 231.57 258.297 230.316 252.413 227.878 C 246.529 225.44099999999997 241.18200000000002 221.868 236.678 217.36499999999998 C 232.175 212.861 228.602 207.51399999999998 226.165 201.63 C 223.72799999999998 195.74599999999998 222.47299999999998 189.439 222.47299999999998 183.07 C 222.47299999999998 176.701 223.72799999999998 170.394 226.165 164.51 C 228.602 158.62599999999998 232.17499999999998 153.279 236.678 148.77499999999998 C 241.182 144.272 246.529 140.69899999999998 252.413 138.26199999999997 C 258.297 135.82399999999998 264.604 134.56999999999996 270.973 134.56999999999996" stroke="#E9E9E9" stroke-width="9" transform-origin="center" fill="none" transform="matrix(-1,0,0,-1,0,0)" stroke-dasharray="100px" pathLength="100" stroke-dashoffset="100" style="transform-box: fill-box;">
        <animate attributeName="stroke-dashoffset" keyTimes="0; 1" values="100; 0" begin="-0.00001" dur="0.49004000000000036" fill="freeze" calcMode="spline" keySplines="0 0 1 1">
        </animate>
    </path>
</svg>
