<svg xmlns="http://www.w3.org/2000/svg" width="536" height="317" fill="none" viewBox="0 0 536 317" data-app="Xyris">
    <defs>
    </defs>
    <rect x="0.5" y="0.828125" width="535" height="315" stroke="white">
    </rect>
    <rect x="51.8828" y="51.8281" width="432.233" height="213" stroke="white">
    </rect>
    <ellipse cx="181.856" cy="25.8281" rx="25.6917" ry="25.5" fill="#FF4646" fill-opacity="0.19">
        <animate attributeName="cx" keyTimes="0; 1" values="181.856; 25.692" begin="-0.00001" dur="1.00002" fill="freeze" calcMode="spline" keySplines="0 0 1 1">
        </animate>
        <animate attributeName="cy" keyTimes="0; 1" values="25.8281;290.817" begin="0.99999" dur="2.00002" fill="freeze" calcMode="spline" keySplines="0 0 1 1">
        </animate>
        <animate attributeName="cx" keyTimes="0; 1" values="25.692; 510.261" begin="2.99999" dur="2.43002" fill="freeze" calcMode="spline" keySplines="0 0 1 1">
        </animate>
        <animate attributeName="cy" keyTimes="0; 1" values="290.817; 25.828" begin="5.42999" dur="1.7700200000000004" fill="freeze" calcMode="spline" keySplines="0 0 1 1">
        </animate>
        <animate attributeName="cx" keyTimes="0; 1" values="510.261; 181.84" begin="7.199990000000001" dur="1.8000199999999997" fill="freeze" calcMode="spline" keySplines="0 0 1 1">
        </animate>
    </ellipse>
    <ellipse cx="510.309" cy="178.828" rx="25.6917" ry="25.5" fill="#FF4646" fill-opacity="0.19">
        <animate attributeName="cy" keyTimes="0; 1" values="178.828; 25.828" begin="-0.00001" dur="1.51002" fill="freeze" calcMode="spline" keySplines="0 0 1 1">
        </animate>
        <animate attributeName="cx" keyTimes="0; 1" values="510.309; 25.692" begin="1.50999" dur="2.47002" fill="freeze" calcMode="spline" keySplines="0 0 1 1">
        </animate>
        <animate attributeName="cy" keyTimes="0; 1" values="25.828; 290.828" begin="3.9799899999999995" dur="2.0200200000000006" fill="freeze" calcMode="spline" keySplines="0 0 1 1">
        </animate>
        <animate attributeName="cx" keyTimes="0; 1" values="25.692; 510.309" begin="5.99999" dur="1.66002" fill="freeze" calcMode="spline" keySplines="0 0 1 1">
        </animate>
        <animate attributeName="cy" keyTimes="0; 1" values="290.828; 178.813" begin="7.6599900000000005" dur="1.3400199999999998" fill="freeze" calcMode="spline" keySplines="0 0 1 1">
        </animate>
    </ellipse>
    <ellipse cx="181.856" cy="290.828" rx="25.6917" ry="25.5" fill="#FF4646" fill-opacity="0.19">
        <animate attributeName="cx" keyTimes="0; 1" values="181.856; 510.309" begin="-0.00001" dur="2.00002" fill="freeze" calcMode="spline" keySplines="0 0 1 1">
        </animate>
        <animate attributeName="cy" keyTimes="0; 1" values="290.828; 25.828" begin="1.99999" dur="1.98002" fill="freeze" calcMode="spline" keySplines="0 0 1 1">
        </animate>
        <animate attributeName="cx" keyTimes="0; 1" values="510.309; 25.692" begin="3.97999" dur="2.02002" fill="freeze" calcMode="spline" keySplines="0 0 1 1">
        </animate>
        <animate attributeName="cy" keyTimes="0; 1" values="25.828; 290.828" begin="5.99999" dur="1.66002" fill="freeze" calcMode="spline" keySplines="0 0 1 1">
        </animate>
        <animate attributeName="cx" keyTimes="0; 1" values="25.692;181.889" begin="7.6599900000000005" dur="1.3400199999999998" fill="freeze" calcMode="spline" keySplines="0 0 1 1">
        </animate>
    </ellipse>
    <ellipse cx="25.6917" cy="178.828" rx="25.6917" ry="25.5" fill="#FF4646" fill-opacity="0.19">
        <animate attributeName="cy" keyTimes="0; 1" values="178.828; 290.828" begin="-0.00001" dur="1.00002" fill="freeze" calcMode="spline" keySplines="0 0 1 1">
        </animate>
        <animate attributeName="cx" keyTimes="0; 1" values="25.6917; 510.309" begin="0.99999" dur="2.00002" fill="freeze" calcMode="spline" keySplines="0 0 1 1">
        </animate>
        <animate attributeName="cy" keyTimes="0; 1" values="290.828; 25.828" begin="2.99999" dur="2.00002" fill="freeze" calcMode="spline" keySplines="0 0 1 1">
        </animate>
        <animate attributeName="cx" keyTimes="0; 1.0" values="510.309;25.692" begin="4.99999" dur="3.00002" fill="freeze" calcMode="spline" keySplines="0 0 1 1">
        </animate>
        <animate attributeName="cy" keyTimes="0; 1" values="25.828; 178.84" begin="7.99999" dur="1.00002" fill="freeze" calcMode="spline" keySplines="0 0 1 1">
        </animate>
    </ellipse>
    <path d="M462.976 173.831C460.187 173.831 457.673 173.345 455.433 172.374C453.194 171.402 451.334 169.965 449.855 168.063L454.292 164.26C455.56 165.739 456.933 166.817 458.412 167.493C459.934 168.127 461.645 168.444 463.546 168.444C464.307 168.444 465.004 168.359 465.638 168.19C466.314 167.979 466.885 167.683 467.349 167.303C467.857 166.923 468.237 166.479 468.49 165.972C468.744 165.422 468.871 164.831 468.871 164.197C468.871 163.098 468.469 162.211 467.666 161.535C467.244 161.239 466.568 160.922 465.638 160.584C464.751 160.204 463.589 159.823 462.152 159.443C459.701 158.809 457.694 158.091 456.13 157.288C454.567 156.485 453.363 155.577 452.518 154.563C451.884 153.76 451.419 152.893 451.123 151.964C450.827 150.992 450.679 149.936 450.679 148.795C450.679 147.4 450.975 146.133 451.567 144.992C452.201 143.808 453.046 142.794 454.102 141.949C455.201 141.062 456.469 140.386 457.905 139.921C459.384 139.456 460.948 139.224 462.596 139.224C464.159 139.224 465.702 139.435 467.223 139.857C468.786 140.28 470.223 140.893 471.533 141.696C472.843 142.498 473.941 143.449 474.829 144.548L471.089 148.668C470.286 147.865 469.399 147.168 468.427 146.576C467.497 145.942 466.547 145.456 465.575 145.118C464.603 144.78 463.715 144.611 462.913 144.611C462.025 144.611 461.222 144.696 460.504 144.865C459.786 145.034 459.173 145.287 458.666 145.625C458.201 145.963 457.842 146.386 457.588 146.893C457.335 147.4 457.208 147.971 457.208 148.604C457.25 149.154 457.377 149.682 457.588 150.189C457.842 150.654 458.18 151.055 458.602 151.393C459.067 151.731 459.765 152.091 460.694 152.471C461.624 152.851 462.807 153.21 464.244 153.548C466.356 154.098 468.089 154.71 469.441 155.387C470.836 156.02 471.934 156.76 472.737 157.605C473.582 158.408 474.174 159.338 474.512 160.394C474.85 161.45 475.019 162.634 475.019 163.943C475.019 165.845 474.47 167.556 473.371 169.078C472.315 170.557 470.878 171.719 469.061 172.564C467.244 173.409 465.216 173.831 462.976 173.831Z" fill="white">
    </path>
    <path d="M430.276 173.831C426.853 173.831 423.811 173.113 421.149 171.676C418.529 170.197 416.458 168.19 414.937 165.655C413.458 163.119 412.719 160.204 412.719 156.908C412.719 154.288 413.141 151.9 413.986 149.745C414.832 147.59 415.994 145.731 417.473 144.167C418.994 142.562 420.79 141.336 422.86 140.491C424.973 139.604 427.255 139.16 429.706 139.16C431.861 139.16 433.868 139.583 435.727 140.428C437.586 141.231 439.192 142.35 440.544 143.787C441.939 145.224 442.995 146.935 443.714 148.921C444.474 150.865 444.833 152.999 444.791 155.323L444.728 158.112H417.536L416.078 152.914H439.087L438.136 153.992V152.471C438.009 151.076 437.544 149.83 436.741 148.731C435.938 147.632 434.924 146.766 433.699 146.132C432.473 145.498 431.142 145.182 429.706 145.182C427.424 145.182 425.501 145.625 423.938 146.513C422.374 147.358 421.191 148.625 420.388 150.316C419.585 151.964 419.184 154.013 419.184 156.464C419.184 158.788 419.67 160.816 420.642 162.549C421.614 164.239 422.987 165.549 424.762 166.479C426.536 167.408 428.586 167.873 430.91 167.873C432.558 167.873 434.079 167.598 435.474 167.049C436.91 166.5 438.453 165.507 440.101 164.07L443.397 168.697C442.383 169.711 441.136 170.599 439.657 171.359C438.22 172.12 436.678 172.732 435.03 173.197C433.424 173.62 431.84 173.831 430.276 173.831ZM429.706 132.568C428.311 132.568 427.234 132.209 426.473 131.491C425.712 130.772 425.332 129.758 425.332 128.448C425.332 127.223 425.712 126.23 426.473 125.469C427.276 124.708 428.354 124.328 429.706 124.328C431.1 124.328 432.178 124.687 432.938 125.406C433.699 126.124 434.079 127.138 434.079 128.448C434.079 129.674 433.678 130.667 432.875 131.427C432.114 132.188 431.058 132.568 429.706 132.568Z" fill="white">
    </path>
    <path d="M399.582 173.197V126.293H406.111V173.197H399.582Z" fill="white">
    </path>
    <path d="M373.189 187.776C370.823 187.776 368.457 187.396 366.09 186.635C363.766 185.917 361.886 184.966 360.449 183.783L362.858 178.712C363.703 179.346 364.696 179.895 365.837 180.36C366.978 180.867 368.182 181.247 369.45 181.501C370.717 181.797 371.964 181.945 373.189 181.945C375.513 181.945 377.457 181.564 379.021 180.804C380.584 180.043 381.767 178.923 382.57 177.444C383.373 175.965 383.774 174.127 383.774 171.93V165.528L384.472 165.972C384.26 167.282 383.563 168.549 382.38 169.775C381.239 170.958 379.802 171.93 378.07 172.69C376.337 173.451 374.563 173.831 372.746 173.831C369.576 173.831 366.745 173.092 364.252 171.613C361.801 170.092 359.857 168.042 358.421 165.465C356.984 162.845 356.266 159.866 356.266 156.528C356.266 153.189 356.963 150.231 358.357 147.654C359.794 145.034 361.738 142.984 364.189 141.505C366.682 139.984 369.471 139.224 372.555 139.224C373.823 139.224 375.048 139.393 376.232 139.731C377.415 140.026 378.513 140.47 379.528 141.062C380.542 141.611 381.45 142.224 382.253 142.9C383.056 143.576 383.711 144.294 384.218 145.055C384.725 145.816 385.042 146.534 385.169 147.21L383.774 147.717V139.921H390.303V171.169C390.303 173.831 389.901 176.177 389.099 178.205C388.338 180.275 387.218 182.008 385.739 183.402C384.26 184.839 382.464 185.917 380.352 186.635C378.239 187.396 375.851 187.776 373.189 187.776ZM373.443 167.81C375.513 167.81 377.351 167.324 378.957 166.352C380.563 165.38 381.809 164.049 382.697 162.359C383.584 160.669 384.028 158.725 384.028 156.528C384.028 154.33 383.563 152.386 382.633 150.696C381.746 148.964 380.5 147.611 378.894 146.64C377.33 145.668 375.513 145.182 373.443 145.182C371.414 145.182 369.597 145.689 367.992 146.703C366.428 147.675 365.182 149.027 364.252 150.76C363.365 152.45 362.921 154.372 362.921 156.528C362.921 158.683 363.365 160.626 364.252 162.359C365.182 164.049 366.428 165.38 367.992 166.352C369.597 167.324 371.414 167.81 373.443 167.81Z" fill="white">
    </path>
    <path d="M341.728 173.197V139.921H348.256V173.197H341.728ZM344.897 132.568C343.502 132.568 342.425 132.209 341.664 131.491C340.904 130.772 340.523 129.758 340.523 128.448C340.523 127.223 340.904 126.23 341.664 125.469C342.467 124.708 343.545 124.328 344.897 124.328C346.291 124.328 347.369 124.687 348.13 125.406C348.89 126.124 349.27 127.138 349.27 128.448C349.27 129.674 348.869 130.667 348.066 131.427C347.306 132.188 346.249 132.568 344.897 132.568Z" fill="white">
    </path>
    <path d="M287.52 173.197V128.828H294.238L310.401 155.133L307.169 155.069L323.522 128.828H329.86V173.197H323.015V155.006C323.015 151.203 323.099 147.78 323.268 144.738C323.479 141.695 323.818 138.674 324.282 135.674L325.17 138.019L310.655 160.457H306.471L292.4 138.272L293.097 135.674C293.562 138.505 293.879 141.42 294.048 144.421C294.259 147.379 294.365 150.907 294.365 155.006V173.197H287.52Z" fill="white">
    </path>
    <path d="M462.451 230.814C459.704 230.814 457.19 230.053 454.908 228.532C452.669 227.011 450.873 224.94 449.52 222.32C448.168 219.7 447.492 216.743 447.492 213.447C447.492 210.108 448.168 207.15 449.52 204.573C450.915 201.953 452.774 199.903 455.098 198.425C457.465 196.946 460.106 196.206 463.021 196.206C464.754 196.206 466.338 196.46 467.775 196.967C469.212 197.474 470.458 198.192 471.515 199.122C472.613 200.009 473.501 201.044 474.177 202.228C474.895 203.411 475.339 204.678 475.508 206.031L474.05 205.524V196.903H480.642V230.18H474.05V222.257L475.571 221.813C475.318 222.954 474.79 224.074 473.987 225.173C473.226 226.229 472.233 227.18 471.008 228.025C469.825 228.87 468.493 229.546 467.015 230.053C465.578 230.56 464.057 230.814 462.451 230.814ZM464.162 224.792C466.148 224.792 467.902 224.306 469.423 223.334C470.944 222.363 472.127 221.032 472.973 219.341C473.86 217.609 474.304 215.644 474.304 213.447C474.304 211.291 473.86 209.369 472.973 207.679C472.127 205.988 470.944 204.657 469.423 203.685C467.902 202.713 466.148 202.228 464.162 202.228C462.218 202.228 460.486 202.713 458.965 203.685C457.486 204.657 456.303 205.988 455.415 207.679C454.57 209.369 454.148 211.291 454.148 213.447C454.148 215.644 454.57 217.609 455.415 219.341C456.303 221.032 457.486 222.363 458.965 223.334C460.486 224.306 462.218 224.792 464.162 224.792Z" fill="#FF4646">
    </path>
    <path d="M428.882 242.666L426.41 237.659C428.058 237.659 429.41 237.363 430.467 236.772C431.565 236.222 432.389 235.377 432.939 234.236C433.488 233.138 433.763 231.764 433.763 230.116V196.903H440.291V231.701C440.291 233.856 439.805 235.758 438.833 237.406C437.904 239.054 436.573 240.342 434.84 241.272C433.15 242.202 431.164 242.666 428.882 242.666ZM437.185 189.55C435.791 189.55 434.713 189.191 433.953 188.473C433.192 187.755 432.812 186.74 432.812 185.431C432.812 184.205 433.192 183.212 433.953 182.451C434.756 181.691 435.833 181.311 437.185 181.311C438.58 181.311 439.657 181.67 440.418 182.388C441.179 183.106 441.559 184.121 441.559 185.431C441.559 186.656 441.158 187.649 440.355 188.41C439.594 189.17 438.538 189.55 437.185 189.55Z" fill="#FF4646">
    </path>
    <path d="M416.31 230.18V196.903H422.838V230.18H416.31ZM419.479 189.55C418.085 189.55 417.007 189.191 416.246 188.473C415.486 187.755 415.105 186.74 415.105 185.431C415.105 184.205 415.486 183.212 416.246 182.451C417.049 181.691 418.127 181.311 419.479 181.311C420.873 181.311 421.951 181.67 422.712 182.388C423.472 183.106 423.852 184.121 423.852 185.431C423.852 186.656 423.451 187.649 422.648 188.41C421.888 189.17 420.831 189.55 419.479 189.55Z" fill="#FF4646">
    </path>
    <path d="M388.941 230.813C385.898 230.813 383.173 230.074 380.764 228.595C378.398 227.074 376.517 225.024 375.123 222.447C373.728 219.827 373.031 216.848 373.031 213.51C373.031 210.171 373.707 207.213 375.06 204.636C376.454 202.016 378.334 199.967 380.701 198.488C383.067 196.966 385.75 196.206 388.751 196.206C390.399 196.206 391.983 196.48 393.504 197.03C395.068 197.537 396.462 198.255 397.688 199.185C398.913 200.072 399.864 201.065 400.54 202.164C401.258 203.22 401.618 204.298 401.618 205.396L399.716 205.523V183.275H406.245V230.18H399.716V222.257H400.984C400.984 223.271 400.646 224.285 399.97 225.299C399.293 226.271 398.385 227.179 397.244 228.025C396.145 228.87 394.857 229.546 393.378 230.053C391.941 230.56 390.462 230.813 388.941 230.813ZM389.828 225.172C391.814 225.172 393.568 224.665 395.089 223.651C396.61 222.637 397.793 221.264 398.638 219.531C399.526 217.756 399.97 215.749 399.97 213.51C399.97 211.27 399.526 209.284 398.638 207.552C397.793 205.777 396.61 204.382 395.089 203.368C393.568 202.354 391.814 201.847 389.828 201.847C387.842 201.847 386.088 202.354 384.567 203.368C383.046 204.382 381.842 205.777 380.954 207.552C380.109 209.284 379.687 211.27 379.687 213.51C379.687 215.749 380.109 217.756 380.954 219.531C381.842 221.264 383.046 222.637 384.567 223.651C386.088 224.665 387.842 225.172 389.828 225.172Z" fill="#FF4646">
    </path>
    <path d="M348.346 230.814C345.98 230.814 343.909 230.265 342.135 229.166C340.402 228.067 339.05 226.525 338.078 224.539C337.148 222.553 336.684 220.186 336.684 217.44V196.903H343.212V215.665C343.212 217.609 343.508 219.299 344.1 220.736C344.733 222.13 345.621 223.208 346.762 223.968C347.945 224.729 349.36 225.109 351.008 225.109C352.234 225.109 353.354 224.919 354.368 224.539C355.382 224.116 356.248 223.546 356.967 222.827C357.727 222.109 358.319 221.243 358.741 220.229C359.164 219.215 359.375 218.116 359.375 216.933V196.903H365.904V230.18H359.375V223.208L360.516 222.447C360.009 224.011 359.143 225.426 357.917 226.694C356.734 227.962 355.319 228.976 353.671 229.736C352.023 230.455 350.248 230.814 348.346 230.814Z" fill="#FF4646">
    </path>
    <path d="M316.479 230.179V188.409H323.008V230.179H316.479ZM309.57 203.241V196.903H330.741V203.241H309.57Z" fill="#FF4646">
    </path>
    <path d="M293.121 230.814C290.332 230.814 287.817 230.328 285.578 229.356C283.338 228.384 281.479 226.947 280 225.046L284.437 221.243C285.705 222.722 287.078 223.799 288.557 224.475C290.078 225.109 291.789 225.426 293.691 225.426C294.452 225.426 295.149 225.342 295.783 225.173C296.459 224.961 297.029 224.666 297.494 224.285C298.001 223.905 298.381 223.461 298.635 222.954C298.888 222.405 299.015 221.813 299.015 221.179C299.015 220.081 298.614 219.193 297.811 218.517C297.388 218.221 296.712 217.905 295.783 217.567C294.895 217.186 293.733 216.806 292.297 216.426C289.846 215.792 287.839 215.073 286.275 214.271C284.712 213.468 283.507 212.559 282.662 211.545C282.028 210.742 281.563 209.876 281.268 208.946C280.972 207.974 280.824 206.918 280.824 205.777C280.824 204.383 281.12 203.115 281.711 201.974C282.345 200.791 283.19 199.777 284.247 198.932C285.345 198.044 286.613 197.368 288.05 196.903C289.529 196.438 291.092 196.206 292.74 196.206C294.304 196.206 295.846 196.417 297.367 196.84C298.931 197.262 300.367 197.875 301.677 198.678C302.987 199.481 304.086 200.432 304.973 201.53L301.234 205.65C300.431 204.847 299.543 204.15 298.572 203.559C297.642 202.925 296.691 202.439 295.719 202.101C294.747 201.763 293.86 201.594 293.057 201.594C292.17 201.594 291.367 201.678 290.649 201.847C289.93 202.016 289.317 202.27 288.81 202.608C288.346 202.946 287.986 203.368 287.733 203.876C287.479 204.383 287.353 204.953 287.353 205.587C287.395 206.136 287.522 206.664 287.733 207.172C287.986 207.636 288.324 208.038 288.747 208.376C289.212 208.714 289.909 209.073 290.839 209.453C291.768 209.834 292.951 210.193 294.388 210.531C296.501 211.08 298.234 211.693 299.586 212.369C300.98 213.003 302.079 213.742 302.882 214.587C303.727 215.39 304.318 216.32 304.656 217.376C304.994 218.433 305.164 219.616 305.164 220.926C305.164 222.827 304.614 224.539 303.516 226.06C302.459 227.539 301.022 228.701 299.205 229.546C297.388 230.391 295.36 230.814 293.121 230.814Z" fill="#FF4646">
    </path>
    <path d="M162 102.272C162 88.8666 172.867 77.9995 186.272 77.9995C199.677 77.9995 210.544 88.8666 210.544 102.272H236.544C236.544 74.5075 214.036 52 186.272 52C158.507 52 136 74.5075 136 102.272C136 130.036 158.507 152.544 186.272 152.544V127C172.867 127 162 115.677 162 102.272Z" fill="#FF4646">
    </path>
    <path d="M 211 176.903 C 211 190.31 199.245 201.179 185.843 201.179 C 172.44 201.179 161.733 189.907 161.733 176.5 L 135.5 176.5 C 135.5 204.269 158.084 227.183 185.843 227.183 C 213.601 227.183 236.104 204.672 236.104 176.903 C 236.922 153.9 213.601 127.078 185.843 127.078 L 185.85616136022608 152.54803183864354 C 200.0131613602261 152.54803183864354 211 163.496 211 176.903 Z" fill="#FF4646">
    </path>
    <path fill-rule="evenodd" clip-rule="evenodd" d="M110.768 152.624C97.2306 152.624 86.2562 163.333 86.2562 176.545V177.022L86.348 226H60.0918L60 177V176.545C60 149.182 82.7297 127 110.768 127C125.745 127 139.208 133.329 148.5 143.396C157.792 133.329 171.255 127 186.232 127C214.27 127 237 149.182 237 176.545V177L236.908 226H210.652L210.744 176.921V176.545C210.744 163.333 199.769 152.624 186.232 152.624C172.694 152.624 161.72 163.333 161.72 176.545H135.28C135.28 163.333 124.306 152.624 110.768 152.624Z" fill="#E9E9E9">
    </path>
    <path d="M73.5 265L52 226L95 226L73.5 265Z" fill="#FF4646">
    </path>
</svg>
