<svg xmlns="http://www.w3.org/2000/svg" width="387" height="229" fill="none" viewBox="0 0 387 229" data-app="Xyris">
    <defs>
    </defs>
    <rect x="0.5" y="0.5" width="386" height="227.157" stroke="white">
    </rect>
    <rect x="37.5977" y="37.3223" width="311.801" height="153.511" stroke="white">
    </rect>
    <circle cx="19" cy="19" r="18" fill="#FF4646" fill-opacity="0.19">
        <animate attributeName="cy" keyTimes="0; 1" values="19; 209" begin="-0.00001" dur="1.50002" fill="freeze" calcMode="spline" keySplines="0 0 1 1">
        </animate>
        <animate attributeName="cx" keyTimes="0; 1" values="19; 368" begin="1.49999" dur="2.4815014814814815" fill="freeze" calcMode="spline" keySplines="0 0 1 1">
        </animate>
        <animate attributeName="cy" keyTimes="0; 1" values="209; 18" begin="3.99999" dur="1.50002" fill="freeze" calcMode="spline" keySplines="0 0 1 1">
        </animate>
        <animate attributeName="cx" keyTimes="0; 1" values="368; 19" begin="5.49999" dur="2.50002" fill="freeze" calcMode="spline" keySplines="0 0 1 1">
        </animate>
    </circle>
    <circle cx="19" cy="209" r="18" fill="#FF4646" fill-opacity="0.19">
        <animate attributeName="cx" keyTimes="0; 1" values="19; 368" begin="-0.00001" dur="2.50002" fill="freeze" calcMode="spline" keySplines="0 0 1 1">
        </animate>
        <animate attributeName="cy" keyTimes="0; 1" values="209;18" begin="2.49999" dur="1.50002" fill="freeze" calcMode="spline" keySplines="0 0 1 1">
        </animate>
        <animate attributeName="cx" keyTimes="0; 1" values="368; 19.035" begin="3.99999" dur="2.4938471604938277" fill="freeze" calcMode="spline" keySplines="0 0 1 1">
        </animate>
        <animate attributeName="cy" keyTimes="0; 1" values="18; 209" begin="6.493817160493828" dur="1.5061928395061723" fill="freeze" calcMode="spline" keySplines="0 0 1 1">
        </animate>
    </circle>
    <circle cx="368" cy="209" r="18" fill="#FF4646" fill-opacity="0.19">
        <animate attributeName="cy" keyTimes="0; 1" values="209; 18" begin="-0.00001" dur="1.50002" fill="freeze" calcMode="spline" keySplines="0 0 1 1">
        </animate>
        <animate attributeName="cx" keyTimes="0; 1" values="368; 19.035" begin="1.49999" dur="2.4815014814814815" fill="freeze" calcMode="spline" keySplines="0 0 1 1">
        </animate>
        <animate attributeName="cy" keyTimes="0; 1" values="18; 208.981" begin="3.9814714814814813" dur="1.5185385185185185" fill="freeze" calcMode="spline" keySplines="0 0 1 1">
        </animate>
        <animate attributeName="cx" keyTimes="0; 1" values="19.035; 367.966" begin="5.49999" dur="2.50002" fill="freeze" calcMode="spline" keySplines="0 0 1 1">
        </animate>
    </circle>
    <circle cx="368" cy="18" r="18" fill="#FF4646" fill-opacity="0.19">
        <animate attributeName="cx" keyTimes="0; 1" values="368; 19" begin="-0.00001" dur="2.50002" fill="freeze" calcMode="spline" keySplines="0 0 1 1">
        </animate>
        <animate attributeName="cy" keyTimes="0; 1" values="18; 209" begin="2.49999" dur="1.4815014814814813" fill="freeze" calcMode="spline" keySplines="0 0 1 1">
        </animate>
        <animate attributeName="cx" keyTimes="0; 1" values="19; 368" begin="3.9814714814814813" dur="2.5123656790123463" fill="freeze" calcMode="spline" keySplines="0 0 1 1">
        </animate>
        <animate attributeName="cy" keyTimes="0; 1" values="209; 18" begin="6.493817160493828" dur="1.5061928395061723" fill="freeze" calcMode="spline" keySplines="0 0 1 1">
        </animate>
    </circle>
    <path d="M334.274 125.272C332.26 125.272 330.445 124.922 328.828 124.22C327.211 123.518 325.869 122.481 324.801 121.108L328.004 118.362C328.92 119.43 329.911 120.208 330.979 120.696C332.077 121.154 333.313 121.382 334.686 121.382C335.235 121.382 335.738 121.321 336.196 121.199C336.684 121.047 337.096 120.833 337.432 120.559C337.798 120.284 338.072 119.964 338.255 119.598C338.439 119.201 338.53 118.774 338.53 118.316C338.53 117.523 338.24 116.882 337.661 116.394C337.355 116.181 336.867 115.952 336.196 115.708C335.555 115.433 334.716 115.159 333.679 114.884C331.91 114.426 330.46 113.908 329.331 113.328C328.203 112.748 327.333 112.092 326.723 111.36C326.265 110.78 325.93 110.155 325.716 109.484C325.503 108.782 325.396 108.019 325.396 107.196C325.396 106.189 325.609 105.273 326.036 104.45C326.494 103.595 327.104 102.863 327.867 102.253C328.66 101.612 329.576 101.124 330.613 100.789C331.681 100.453 332.81 100.285 333.999 100.285C335.128 100.285 336.242 100.438 337.34 100.743C338.469 101.048 339.506 101.49 340.452 102.07C341.398 102.65 342.191 103.336 342.832 104.129L340.132 107.104C339.552 106.524 338.911 106.021 338.21 105.594C337.539 105.136 336.852 104.785 336.15 104.541C335.449 104.297 334.808 104.175 334.228 104.175C333.588 104.175 333.008 104.236 332.489 104.358C331.971 104.48 331.528 104.663 331.162 104.907C330.826 105.151 330.567 105.457 330.384 105.823C330.201 106.189 330.109 106.601 330.109 107.058C330.14 107.455 330.231 107.836 330.384 108.202C330.567 108.538 330.811 108.828 331.116 109.072C331.452 109.316 331.955 109.575 332.626 109.85C333.298 110.124 334.152 110.384 335.189 110.628C336.715 111.025 337.966 111.467 338.942 111.955C339.949 112.413 340.742 112.947 341.322 113.557C341.932 114.136 342.359 114.808 342.603 115.57C342.847 116.333 342.969 117.187 342.969 118.133C342.969 119.506 342.573 120.742 341.779 121.84C341.017 122.908 339.979 123.747 338.667 124.357C337.355 124.967 335.891 125.272 334.274 125.272Z" fill="white">
    </path>
    <path d="M310.665 125.273C308.194 125.273 305.997 124.755 304.075 123.717C302.183 122.649 300.688 121.2 299.59 119.37C298.522 117.539 297.988 115.434 297.988 113.054C297.988 111.163 298.293 109.439 298.904 107.883C299.514 106.327 300.353 104.984 301.421 103.855C302.519 102.696 303.816 101.811 305.311 101.201C306.836 100.56 308.484 100.24 310.253 100.24C311.809 100.24 313.258 100.545 314.601 101.155C315.943 101.735 317.103 102.544 318.079 103.581C319.086 104.618 319.848 105.854 320.367 107.288C320.916 108.691 321.176 110.232 321.145 111.91L321.099 113.924H301.466L300.414 110.171H317.026L316.34 110.949V109.851C316.248 108.844 315.913 107.944 315.333 107.151C314.753 106.357 314.021 105.732 313.136 105.274C312.251 104.817 311.29 104.588 310.253 104.588C308.606 104.588 307.217 104.908 306.089 105.549C304.96 106.159 304.105 107.074 303.526 108.295C302.946 109.484 302.656 110.964 302.656 112.734C302.656 114.412 303.007 115.876 303.709 117.127C304.411 118.348 305.402 119.293 306.683 119.965C307.965 120.636 309.445 120.971 311.123 120.971C312.313 120.971 313.411 120.773 314.418 120.376C315.455 119.98 316.569 119.263 317.758 118.225L320.138 121.566C319.406 122.298 318.506 122.939 317.438 123.488C316.401 124.038 315.287 124.48 314.097 124.816C312.938 125.121 311.794 125.273 310.665 125.273ZM310.253 95.4806C309.246 95.4806 308.468 95.2213 307.919 94.7026C307.37 94.184 307.095 93.4517 307.095 92.5059C307.095 91.6212 307.37 90.9042 307.919 90.355C308.499 89.8058 309.277 89.5312 310.253 89.5312C311.26 89.5312 312.038 89.7906 312.587 90.3092C313.136 90.8279 313.411 91.5601 313.411 92.5059C313.411 93.3907 313.121 94.1077 312.541 94.6569C311.992 95.206 311.229 95.4806 310.253 95.4806Z" fill="white">
    </path>
    <path d="M288.504 124.815V90.9492H293.218V124.815H288.504Z" fill="white">
    </path>
    <path d="M269.45 135.341C267.741 135.341 266.032 135.066 264.324 134.517C262.646 133.998 261.288 133.312 260.251 132.457L261.99 128.796C262.6 129.254 263.317 129.651 264.141 129.986C264.965 130.352 265.834 130.627 266.749 130.81C267.665 131.024 268.565 131.13 269.45 131.13C271.128 131.13 272.531 130.856 273.66 130.307C274.789 129.757 275.643 128.949 276.223 127.881C276.802 126.813 277.092 125.486 277.092 123.9V119.277L277.596 119.598C277.443 120.543 276.94 121.459 276.085 122.344C275.262 123.198 274.224 123.9 272.973 124.449C271.723 124.998 270.441 125.272 269.129 125.272C266.841 125.272 264.797 124.739 262.997 123.671C261.227 122.572 259.824 121.093 258.786 119.232C257.749 117.34 257.23 115.189 257.23 112.779C257.23 110.369 257.734 108.233 258.741 106.372C259.778 104.48 261.181 103.001 262.951 101.933C264.751 100.834 266.765 100.285 268.992 100.285C269.907 100.285 270.792 100.407 271.646 100.651C272.5 100.865 273.294 101.185 274.026 101.612C274.758 102.009 275.414 102.451 275.994 102.939C276.574 103.428 277.046 103.946 277.413 104.495C277.779 105.045 278.007 105.563 278.099 106.051L277.092 106.418V100.789H281.806V123.35C281.806 125.272 281.516 126.966 280.936 128.43C280.387 129.925 279.579 131.176 278.511 132.183C277.443 133.22 276.146 133.998 274.621 134.517C273.095 135.066 271.372 135.341 269.45 135.341ZM269.633 120.925C271.128 120.925 272.455 120.574 273.614 119.872C274.773 119.171 275.673 118.21 276.314 116.989C276.955 115.769 277.275 114.365 277.275 112.779C277.275 111.192 276.94 109.789 276.268 108.568C275.628 107.318 274.728 106.341 273.568 105.64C272.439 104.938 271.128 104.587 269.633 104.587C268.168 104.587 266.856 104.953 265.697 105.685C264.568 106.387 263.668 107.363 262.997 108.614C262.356 109.835 262.036 111.223 262.036 112.779C262.036 114.335 262.356 115.738 262.997 116.989C263.668 118.21 264.568 119.171 265.697 119.872C266.856 120.574 268.168 120.925 269.633 120.925Z" fill="white">
    </path>
    <path d="M246.733 124.816V100.789H251.447V124.816H246.733ZM249.021 95.4806C248.014 95.4806 247.236 95.2213 246.687 94.7026C246.138 94.184 245.863 93.4517 245.863 92.5059C245.863 91.6212 246.138 90.9042 246.687 90.355C247.267 89.8058 248.045 89.5312 249.021 89.5312C250.028 89.5312 250.806 89.7906 251.355 90.3092C251.904 90.8279 252.179 91.5601 252.179 92.5059C252.179 93.3907 251.889 94.1077 251.309 94.6569C250.76 95.206 249.997 95.4806 249.021 95.4806Z" fill="white">
    </path>
    <path d="M207.594 124.816V92.7812H212.445L224.115 111.773L221.781 111.728L233.588 92.7812H238.164V124.816H233.222V111.682C233.222 108.936 233.283 106.465 233.405 104.268C233.557 102.071 233.801 99.89 234.137 97.7238L234.778 99.4171L224.298 115.618H221.277L211.118 99.6001L211.621 97.7238C211.957 99.7679 212.185 101.873 212.307 104.039C212.46 106.175 212.536 108.722 212.536 111.682V124.816H207.594Z" fill="white">
    </path>
    <path d="M333.898 166.413C331.915 166.413 330.1 165.864 328.452 164.766C326.835 163.667 325.538 162.172 324.562 160.281C323.586 158.389 323.098 156.253 323.098 153.874C323.098 151.463 323.586 149.328 324.562 147.467C325.569 145.575 326.911 144.095 328.589 143.028C330.298 141.96 332.205 141.426 334.31 141.426C335.561 141.426 336.705 141.609 337.742 141.975C338.78 142.341 339.68 142.86 340.442 143.531C341.236 144.172 341.876 144.919 342.364 145.773C342.883 146.628 343.203 147.543 343.325 148.519L342.273 148.153V141.929H347.032V165.955H342.273V160.235L343.371 159.915C343.188 160.738 342.807 161.547 342.227 162.34C341.678 163.103 340.961 163.789 340.076 164.399C339.222 165.01 338.261 165.498 337.193 165.864C336.156 166.23 335.057 166.413 333.898 166.413ZM335.134 162.065C336.568 162.065 337.834 161.715 338.932 161.013C340.03 160.311 340.885 159.35 341.495 158.13C342.136 156.879 342.456 155.46 342.456 153.874C342.456 152.318 342.136 150.93 341.495 149.709C340.885 148.489 340.03 147.528 338.932 146.826C337.834 146.124 336.568 145.773 335.134 145.773C333.73 145.773 332.479 146.124 331.381 146.826C330.313 147.528 329.459 148.489 328.818 149.709C328.208 150.93 327.903 152.318 327.903 153.874C327.903 155.46 328.208 156.879 328.818 158.13C329.459 159.35 330.313 160.311 331.381 161.013C332.479 161.715 333.73 162.065 335.134 162.065Z" fill="#FF4646">
    </path>
    <path d="M309.66 174.972L307.875 171.356C309.065 171.356 310.041 171.143 310.804 170.716C311.597 170.319 312.192 169.709 312.589 168.885C312.985 168.092 313.184 167.1 313.184 165.91V141.93H317.897V167.054C317.897 168.61 317.547 169.983 316.845 171.173C316.174 172.363 315.213 173.294 313.962 173.965C312.741 174.636 311.307 174.972 309.66 174.972ZM315.655 136.621C314.648 136.621 313.87 136.362 313.321 135.843C312.772 135.325 312.497 134.592 312.497 133.647C312.497 132.762 312.772 132.045 313.321 131.496C313.901 130.946 314.679 130.672 315.655 130.672C316.662 130.672 317.44 130.931 317.989 131.45C318.538 131.969 318.813 132.701 318.813 133.647C318.813 134.531 318.523 135.248 317.943 135.797C317.394 136.347 316.631 136.621 315.655 136.621Z" fill="#FF4646">
    </path>
    <path d="M300.58 165.956V141.93H305.294V165.956H300.58ZM302.869 136.621C301.862 136.621 301.084 136.362 300.535 135.843C299.986 135.325 299.711 134.592 299.711 133.647C299.711 132.762 299.986 132.045 300.535 131.496C301.114 130.946 301.892 130.672 302.869 130.672C303.875 130.672 304.653 130.931 305.203 131.45C305.752 131.969 306.026 132.701 306.026 133.647C306.026 134.531 305.737 135.248 305.157 135.797C304.608 136.347 303.845 136.621 302.869 136.621Z" fill="#FF4646">
    </path>
    <path d="M280.823 166.413C278.626 166.413 276.658 165.879 274.919 164.811C273.211 163.713 271.853 162.233 270.846 160.372C269.839 158.481 269.336 156.33 269.336 153.919C269.336 151.509 269.824 149.373 270.8 147.512C271.807 145.621 273.165 144.141 274.873 143.073C276.582 141.975 278.519 141.426 280.685 141.426C281.875 141.426 283.019 141.624 284.118 142.021C285.247 142.387 286.253 142.905 287.138 143.577C288.023 144.217 288.709 144.934 289.198 145.728C289.716 146.49 289.976 147.268 289.976 148.062L288.603 148.153V132.09H293.316V165.955H288.603V160.235H289.518C289.518 160.967 289.274 161.699 288.786 162.432C288.298 163.133 287.642 163.789 286.818 164.399C286.025 165.01 285.094 165.498 284.026 165.864C282.989 166.23 281.921 166.413 280.823 166.413ZM281.463 162.34C282.897 162.34 284.164 161.974 285.262 161.242C286.36 160.509 287.215 159.518 287.825 158.267C288.465 156.986 288.786 155.536 288.786 153.919C288.786 152.302 288.465 150.868 287.825 149.618C287.215 148.336 286.36 147.329 285.262 146.597C284.164 145.865 282.897 145.499 281.463 145.499C280.03 145.499 278.763 145.865 277.665 146.597C276.567 147.329 275.697 148.336 275.056 149.618C274.446 150.868 274.141 152.302 274.141 153.919C274.141 155.536 274.446 156.986 275.056 158.267C275.697 159.518 276.567 160.509 277.665 161.242C278.763 161.974 280.03 162.34 281.463 162.34Z" fill="#FF4646">
    </path>
    <path d="M251.51 166.416C249.802 166.416 248.307 166.019 247.026 165.226C245.775 164.432 244.798 163.319 244.097 161.885C243.425 160.451 243.09 158.742 243.09 156.759V141.932H247.804V155.478C247.804 156.881 248.017 158.102 248.444 159.139C248.902 160.146 249.543 160.924 250.366 161.473C251.221 162.022 252.243 162.297 253.433 162.297C254.317 162.297 255.126 162.159 255.858 161.885C256.59 161.58 257.216 161.168 257.734 160.649C258.284 160.131 258.711 159.505 259.016 158.773C259.321 158.041 259.473 157.247 259.473 156.393V141.932H264.187V165.958H259.473V160.924L260.297 160.375C259.931 161.504 259.306 162.526 258.421 163.441C257.567 164.356 256.545 165.088 255.355 165.638C254.165 166.156 252.883 166.416 251.51 166.416Z" fill="#FF4646">
    </path>
    <path d="M228.504 165.958V135.799H233.218V165.958H228.504ZM223.516 146.508V141.931H238.801V146.508H223.516Z" fill="#FF4646">
    </path>
    <path d="M211.637 166.413C209.624 166.413 207.808 166.062 206.191 165.361C204.574 164.659 203.232 163.621 202.164 162.249L205.368 159.503C206.283 160.571 207.274 161.349 208.342 161.837C209.441 162.294 210.676 162.523 212.049 162.523C212.598 162.523 213.102 162.462 213.559 162.34C214.048 162.188 214.459 161.974 214.795 161.699C215.161 161.425 215.436 161.104 215.619 160.738C215.802 160.342 215.893 159.915 215.893 159.457C215.893 158.664 215.604 158.023 215.024 157.535C214.719 157.321 214.231 157.092 213.559 156.848C212.919 156.574 212.08 156.299 211.042 156.025C209.273 155.567 207.824 155.048 206.695 154.469C205.566 153.889 204.696 153.233 204.086 152.501C203.629 151.921 203.293 151.296 203.079 150.624C202.866 149.923 202.759 149.16 202.759 148.336C202.759 147.329 202.973 146.414 203.4 145.59C203.857 144.736 204.468 144.004 205.23 143.394C206.024 142.753 206.939 142.265 207.976 141.929C209.044 141.594 210.173 141.426 211.363 141.426C212.492 141.426 213.605 141.578 214.703 141.883C215.832 142.189 216.87 142.631 217.815 143.211C218.761 143.79 219.554 144.477 220.195 145.27L217.495 148.245C216.915 147.665 216.275 147.162 215.573 146.734C214.902 146.277 214.215 145.926 213.514 145.682C212.812 145.438 212.171 145.316 211.592 145.316C210.951 145.316 210.371 145.377 209.852 145.499C209.334 145.621 208.891 145.804 208.525 146.048C208.19 146.292 207.93 146.597 207.747 146.963C207.564 147.329 207.473 147.741 207.473 148.199C207.503 148.596 207.595 148.977 207.747 149.343C207.93 149.679 208.174 149.968 208.48 150.213C208.815 150.457 209.319 150.716 209.99 150.991C210.661 151.265 211.515 151.524 212.553 151.769C214.078 152.165 215.329 152.608 216.305 153.096C217.312 153.553 218.105 154.087 218.685 154.697C219.295 155.277 219.722 155.948 219.966 156.711C220.21 157.474 220.332 158.328 220.332 159.274C220.332 160.647 219.936 161.882 219.143 162.981C218.38 164.049 217.343 164.888 216.031 165.498C214.719 166.108 213.254 166.413 211.637 166.413Z" fill="#FF4646">
    </path>
    <path d="M116.967 73.6076C116.967 63.9288 124.814 56.0826 134.492 56.0826C144.171 56.0826 152.017 63.9288 152.017 73.6076H170.789C170.789 53.5613 154.539 37.3105 134.492 37.3105C114.446 37.3105 98.1953 53.5613 98.1953 73.6076C98.1953 93.6539 114.446 109.905 134.492 109.905V91.4617C124.814 91.4617 116.967 83.2863 116.967 73.6076Z" fill="#FF4646">
    </path>
    <path d="M152.348 127.492C152.348 137.173 143.86 145.02 134.184 145.02C124.507 145.02 116.776 136.882 116.776 127.201L97.8355 127.201C97.8355 147.251 114.142 163.795 134.184 163.795C154.226 163.795 170.473 147.542 170.473 127.492C171.064 110.884 154.226 91.5179 134.184 91.5179L134.184 109.965C144.405 109.965 152.348 117.812 152.348 127.492Z" fill="#FF4646">
    </path>
    <path fill-rule="evenodd" clip-rule="evenodd" d="M79.9796 109.962C70.2053 109.962 62.2816 117.694 62.2816 127.233V127.578L62.3479 162.94H43.3905L43.3242 127.562V127.233C43.3242 107.477 59.7354 91.4609 79.9796 91.4609C90.7933 91.4609 100.513 96.0307 107.223 103.299C113.932 96.0307 123.652 91.4609 134.465 91.4609C154.71 91.4609 171.121 107.477 171.121 127.233V127.562L171.055 162.94H152.097L152.163 127.504V127.233C152.163 117.694 144.24 109.962 134.465 109.962C124.691 109.962 116.768 117.694 116.768 127.233H97.6776C97.6776 117.694 89.7539 109.962 79.9796 109.962Z" fill="#E9E9E9">
    </path>
    <path d="M53.0704 191.1L37.5471 162.941L68.5938 162.941L53.0704 191.1Z" fill="#FF4646">
    </path>
</svg>
